<svg xmlns="http://www.w3.org/2000/svg" viewBox="0 0 512 512">
  <rect width="512" height="512" rx="80" fill="#CC0000"/>
  <circle cx="256" cy="256" r="200" fill="white"/>
  <clipPath id="bc"><circle cx="256" cy="256" r="200"/></clipPath>
  <g clip-path="url(#bc)">
    <rect x="56" y="56"  width="400" height="134" fill="#CC0000"/>
    <rect x="56" y="190" width="400" height="133" fill="#003F8A"/>
    <rect x="56" y="323" width="400" height="133" fill="#e8eaf0"/>
  </g>
  <g transform="rotate(22, 256, 256)" clip-path="url(#bc)">
    <polygon points="256,180 318,222 295,295 217,295 194,222" fill="rgba(255,255,255,0.30)" stroke="white" stroke-width="5" stroke-linejoin="round"/>
    <polygon points="256,68 318,110 295,148 217,148 194,110" fill="rgba(255,255,255,0.22)" stroke="white" stroke-width="5" stroke-linejoin="round"/>
    <polygon points="388,136 435,172 430,245 370,268 338,202" fill="rgba(255,255,255,0.22)" stroke="white" stroke-width="5" stroke-linejoin="round"/>
    <polygon points="390,330 402,404 338,442 282,418 292,348" fill="rgba(255,255,255,0.22)" stroke="white" stroke-width="5" stroke-linejoin="round"/>
    <polygon points="230,418 174,442 110,404 122,330 220,348" fill="rgba(255,255,255,0.22)" stroke="white" stroke-width="5" stroke-linejoin="round"/>
    <polygon points="174,202 142,268 82,245 77,172 124,136" fill="rgba(255,255,255,0.22)" stroke="white" stroke-width="5" stroke-linejoin="round"/>
  </g>
  <circle cx="256" cy="256" r="200" fill="none" stroke="rgba(0,0,0,0.12)" stroke-width="4"/>
  <ellipse cx="192" cy="168" rx="72" ry="48" fill="white" opacity="0.40" transform="rotate(-30 192 168)"/>
  <ellipse cx="185" cy="162" rx="34" ry="22" fill="white" opacity="0.55" transform="rotate(-30 185 162)"/>
  <text x="256" y="498" text-anchor="middle" font-family="Arial Black,Arial,sans-serif" font-size="46" font-weight="900" fill="white" letter-spacing="6">СФ</text>
</svg>
